REM DIRINDEX 1\2,1\3
REM DIRNAME folder01,folder02,folder03
TITLE ""
FILE "DISC1Track34.mp3" MP3
  TRACK 01 AUDIO
    TITLE "0:"
    INDEX 01 00:00:00
  TRACK 02 AUDIO
    TITLE "3:cjc133_1520"
    INDEX 01 00:00:19
  TRACK 03 AUDIO
    TITLE "0:"
    INDEX 01 00:01:56
  TRACK 04 AUDIO
    TITLE "2:cjc133_1521"
    INDEX 01 00:02:34
  TRACK 05 AUDIO
    TITLE "2:cjc133_1522"
    INDEX 01 00:04:40
  TRACK 06 AUDIO
    TITLE "2:cjc133_1523"
    INDEX 01 00:07:09
  TRACK 07 AUDIO
    TITLE "0:"
    INDEX 01 00:08:60
  TRACK 08 AUDIO
    TITLE "2:cjc133_1524"
    INDEX 01 00:09:38
  TRACK 09 AUDIO
    TITLE "2:cjc133_1525"
    INDEX 01 00:10:35
  TRACK 10 AUDIO
    TITLE "2:cjc133_1526"
    INDEX 01 00:13:02
  TRACK 11 AUDIO
    TITLE "0:"
    INDEX 01 00:14:47
  TRACK 12 AUDIO
    TITLE "2:cjc133_1527"
    INDEX 01 00:15:25
  TRACK 13 AUDIO
    TITLE "2:cjc133_1528"
    INDEX 01 00:16:67
  TRACK 14 AUDIO
    TITLE "2:cjc133_1529"
    INDEX 01 00:19:20
  TRACK 15 AUDIO
    TITLE "0:"
    INDEX 01 00:20:63
  TRACK 16 AUDIO
    TITLE "2:cjc133_1530"
    INDEX 01 00:21:39
  TRACK 17 AUDIO
    TITLE "2:cjc133_1531"
    INDEX 01 00:22:70
  TRACK 18 AUDIO
    TITLE "2:cjc133_1532"
    INDEX 01 00:25:43
  TRACK 19 AUDIO
    TITLE "0:"
    INDEX 01 00:27:14
  TRACK 20 AUDIO
    TITLE "2:cjc133_1533"
    INDEX 01 00:27:67
  TRACK 21 AUDIO
    TITLE "2:cjc133_1534"
    INDEX 01 00:29:56
  TRACK 22 AUDIO
    TITLE "2:cjc133_1535"
    INDEX 01 00:32:43
  TRACK 23 AUDIO
    TITLE "0:"
    INDEX 01 00:34:34
  TRACK 24 AUDIO
    TITLE "2:cjc133_1536"
    INDEX 01 00:35:10
  TRACK 25 AUDIO
    TITLE "2:cjc133_1537"
    INDEX 01 00:36:58
  TRACK 26 AUDIO
    TITLE "2:cjc133_1538"
    INDEX 01 00:39:35
  TRACK 27 AUDIO
    TITLE "0:"
    INDEX 01 00:41:20
  TRACK 28 AUDIO
    TITLE "2:cjc133_1539"
    INDEX 01 00:41:67
  TRACK 29 AUDIO
    TITLE "2:cjc133_1540"
    INDEX 01 00:43:40
  TRACK 30 AUDIO
    TITLE "2:cjc133_1541"
    INDEX 01 00:46:43
  TRACK 31 AUDIO
    TITLE "0:"
    INDEX 01 00:48:51
  TRACK 32 AUDIO
    TITLE "2:cjc133_1542"
    INDEX 01 00:49:25
  TRACK 33 AUDIO
    TITLE "2:cjc133_1543"
    INDEX 01 00:51:16
  TRACK 34 AUDIO
    TITLE "2:cjc133_1544"
    INDEX 01 00:54:01
  TRACK 35 AUDIO
    TITLE "0:"
    INDEX 01 00:55:67
  TRACK 36 AUDIO
    TITLE "2:cjc133_1545"
    INDEX 01 00:56:39
  TRACK 37 AUDIO
    TITLE "2:cjc133_1546"
    INDEX 01 00:59:02
  TRACK 38 AUDIO
    TITLE "2:cjc133_1547"
    INDEX 01 01:01:44
  TRACK 39 AUDIO
    TITLE "0:"
    INDEX 01 01:03:22
  TRACK 40 AUDIO
    TITLE "2:cjc133_1548"
    INDEX 01 01:03:73
  TRACK 41 AUDIO
    TITLE "2:cjc133_1549"
    INDEX 01 01:06:22
  TRACK 42 AUDIO
    TITLE "2:cjc133_1550"
    INDEX 01 01:09:46
  TRACK 43 AUDIO
    TITLE "0:"
    INDEX 01 01:11:74
  TRACK 44 AUDIO
    TITLE "2:cjc133_1551"
    INDEX 01 01:12:52
  TRACK 45 AUDIO
    TITLE "2:cjc133_1552"
    INDEX 01 01:14:35
  TRACK 46 AUDIO
    TITLE "2:cjc133_1553"
    INDEX 01 01:18:27
  TRACK 47 AUDIO
    TITLE "0:"
    INDEX 01 01:21:33
  TRACK 48 AUDIO
    TITLE "2:cjc133_1554"
    INDEX 01 01:22:07
  TRACK 49 AUDIO
    TITLE "2:cjc133_1555"
    INDEX 01 01:23:09
  TRACK 50 AUDIO
    TITLE "2:cjc133_1556"
    INDEX 01 01:27:03
  TRACK 51 AUDIO
    TITLE "0:"
    INDEX 01 01:30:05
  TRACK 52 AUDIO
    TITLE "2:cjc133_1557"
    INDEX 01 01:30:52
  TRACK 53 AUDIO
    TITLE "2:cjc133_1558"
    INDEX 01 01:31:53
  TRACK 54 AUDIO
    TITLE "2:cjc133_1559"
    INDEX 01 01:35:27
  TRACK 55 AUDIO
    TITLE "0:"
    INDEX 01 01:38:08
  TRACK 56 AUDIO
    TITLE "2:cjc133_1560"
    INDEX 01 01:38:57
  TRACK 57 AUDIO
    TITLE "2:cjc133_1561"
    INDEX 01 01:40:54
  TRACK 58 AUDIO
    TITLE "2:cjc133_1562"
    INDEX 01 01:44:36
  TRACK 59 AUDIO
    TITLE "0:"
    INDEX 01 01:47:25
  TRACK 60 AUDIO
    TITLE "2:cjc133_1563"
    INDEX 01 01:48:03
  TRACK 61 AUDIO
    TITLE "2:cjc133_1564"
    INDEX 01 01:49:69
  TRACK 62 AUDIO
    TITLE "2:cjc133_1565"
    INDEX 01 01:53:69
  TRACK 63 AUDIO
    TITLE "0:"
    INDEX 01 01:57:00
